<?xml version="1.0" encoding="utf-8"?>
<!-- Generator: Adobe Illustrator 19.0.0, SVG Export Plug-In . SVG Version: 6.00 Build 0)  -->
<svg version="1.1" id="Layer_1" xmlns="http://www.w3.org/2000/svg" xmlns:xlink="http://www.w3.org/1999/xlink" x="0px" y="0px"
	 viewBox="0 0 1500 1000" style="enable-background:new 0 0 1500 1000;" xml:space="preserve">
<g>
	<defs>
	<mask id="maskid" maskUnits="objectBoundingBox">

	<path d="M1500,188c-7,6.2-16.4,11.1-18,20.8c-1.4,8.3-4.5,11.4-12.5,11.2c-2.5-0.1-5,1.7-7.6,1.9c-2.2,0.1-4.5-0.9-6.7-1.5
		c-4-1.1-7.9-2.5-12-3.5c-1.4-0.3-3,0.8-4.4,0.5c-9.7-2.1-20-3.1-28.8-7.1c-5.9-2.8-11.3-6.2-18-6.5c-8.3-0.5-16.7-1.7-24.9-1.3
		c-6.2,0.3-12.6,2.1-18.4,4.5c-3,1.2-5,5.1-7,8.1c-4.9,7.3-9.3,14.9-14.5,22c-4.2,5.7-9.3,10.8-13.9,16.3c-0.9,1.1-1.8,2.5-1.9,3.8
		c-0.4,3.7-1.6,6.6-5.2,8.4c-1,0.5-1.7,2-2.2,3.2c-2.1,4.4-4.1,8.9-6.1,13.4c-0.2,0.4-0.5,1.1-0.9,1.2c-9.2,1.4-11.5,12.5-20.3,14.5
		c-1.5,0.3-3.4,0.6-4.6,0c-10.9-5.8-14.8-5.3-23.7,3.1c-1.4,1.4-2.6,2-5.3,1.7c-2.7-0.3-6,2.9-8.8,5c-1.5,1.2-2.6,3.1-3.4,4.8
		c-2.7,6-9.5,6.2-13.9,9.7c-1.5,1.2-2.9,2.7-4.6,3.2c-3.9,1.1-7.9,1.8-11.9,2.5c-2.7,0.5-5.4,0.8-8.2,1.1
		c-6.6,0.8-13.2,1.5-19.8,2.4c-1.9,0.3-4.3,0.8-5.3,2.1c-3,3.9-6.7,6.1-11.3,7.7c-3.7,1.2-6.9,3.7-10.5,5.3
		c-6.5,2.9-13.2,5.6-19.7,8.5c-1,0.4-1.5,1.8-2.5,2.3c-1.5,0.8-3.2,1.4-4.9,1.8c-5.4,1-10.9,1.8-16.3,2.6
		c-5.6,0.8-11.1,1.6-16.8,1.7c-2,1.9-3.8,2.4-6.9,0.5c-6.2-3.8-12.4-1.4-18.5,1.1c-1.5,0.6-3.3,0.8-5,1c-8.7,1-17.3,2-26,3
		c-5.4,8.2-16.8,7-23,14.2c-0.7,0.8-4,0.1-5.8-0.7c-2.2-1.1-4.1-2.9-6-4.6c-2.2-1.9-4.2-1.6-6.1,0.4c-0.5,0.5-0.9,1-1.5,1.3
		c-2.9,1.4-13.2-1.8-14.7-4.7c-0.7-1.4-0.7-3.2-1-4.6c-2.3-3.4-4.2-7.2-7-10.1c-2.2-2.3-5.5-4.9-8.2-4.8c-8.1,0.1-16.4,0.4-24.2,2.5
		c-9.8,2.7-9.5,3.4-16.5-4.9c-0.7-0.9-2.7-1.2-4-1.1c-5.4,0.7-10.6,2.3-16,2.6c-8.3,0.4-16.7,0-25.1-0.1c-3,0-5.9-0.1-8.9-0.1
		c-3.9,0.1-7.5-0.7-10.4-3.7c-0.5-0.5-1.5-0.5-2.3-0.6c-6.2-0.9-12.5-2.8-18.6-2.2c-5.2,0.5-10.8-1.3-16,2.5
		c-3.1,2.3-8.1,2.9-12.3,0.2c-0.6-0.4-2.7,0.4-3,1.1c-1.4,3.9-3.5,4.1-7,2.3c-1.7-0.8-4.2-0.6-6.2-0.3c-5.1,0.8-6.5-0.2-7.5-5.2
		c-0.8-3.9-2.2-7.8-3-11.7c-1.6-7.7-7.7-12.4-12.4-17.6c-10.1-10.9-22.4-19.3-36.3-25.1c-2.5-1.1-4.9-3.8-7.3-3.7
		c-3.3,0-6.6,2-9.5,2.9c-2-0.8-4.1-1.4-6-2.4c-2.6-1.3-5.1-3-7.7-4.3c-4.8-2.3-9.8-4.4-14.7-6.6c-0.3-0.1-0.7,0-1-0.1
		c-3.9-2.3-7.4-3.3-10,1.9c-0.3,0.7-2.8,1.3-3.1,0.9c-3-3.8-6.1-1.3-9.3-0.5c-2.3,0.6-4.3,0.9-6.3-1.9c-1.5-2.1-5.1-2.6-7.6-4
		c-4.2-2.3-8.2-5-12.6-7c-4.9-2.2-7.7-0.5-8.8,4.5c-1,4.5-2.1,4.9-6.3,3.1c-1.6-0.7-3.7,0.1-6.4,0.2c-3.9-3.1-8.3-7.2-13.4-10.4
		c-4-2.5-8.8-3.8-13.3-5.4c-7.1-2.4-14.1-5.1-21.4-6.5c-4.1-0.8-8.9,0.2-13,1.6c-4.6,1.6-8.7,2.8-13.8,1.9
		c-3.9-0.7-9.5-2.5-12.3,3.3c-0.3,0.6-1.7,0.5-2.6,0.8c-1.4,0.5-2.7,1.1-4,1.7c-0.7,0.4-1.4,1.5-1.9,1.4c-5.1-0.6-9.1,0.8-12.6,4.7
		c-0.6,0.7-4.2-0.5-5.6-1.7c-2.9-2.6-4.6-1.5-6,1c-5.1-4.5-10-9.3-15.5-13.4c-3.6-2.8-7.8-4.3-12.9-3.1c-2.7,0.6-5.9-0.9-8.9-1.3
		c-1.1-0.1-2.6-0.3-3.2,0.3c-5.8,5-13,7.9-20,9.2c-7.7,1.4-11.5,7.8-17.9,10.3c-2.6,1-5.5,1.3-8.3,1.8c-1.6,0.3-3.2,0.2-4.8,0.5
		c-5.2,1.1-10.3,2.4-15.4,3.3c-5.1,0.9-10.2,1.6-15.3,2.1c-2.8,0.3-6.4-1-8.5,0.3c-8.1,5.2-17.6,1-25.9,4.3
		c-0.9,0.4-2.2-0.6-3.3-0.5c-2.7,0.3-5.4,0.7-8,1.5c-1.8,0.6-3.7,3.2-4.8,2.8c-2.8-1.1-6-2.8-7.4-5.2c-1.8-3.2-3.7-5.1-7.1-6.2
		c-3.1-1-5.9-3-9-4c-2.6-0.8-5.4-1-8.1-1.2c-2.1-0.2-4.4,0.4-6.4,0c-9.1-1.7-15.5,2.1-20.8,9.2c-1.7,2.2-4.6,3.9-7.3,5
		c-4.6,1.8-9.4,3.6-14.2,4.2c-6.7,0.9-13.5,1.4-20.2,0.8c-14.5-1.3-29-3.4-43.5-5.1c-1.1-0.1-2.9,0-3.2,0.6c-3.3,6.1-9.4,6-15,7.3
		c-4.4,1-8.6,2.7-12.9,3.9c-3.8,1.1-7.6,2.4-11.4,2.9c-6.9,0.8-14,0.9-20.9,1.5c-1.4,0.1-2.7,1-4.1,1.5c-2.3,0.9-4.6,1.9-6.9,2.9
		c-2.9,1.2-4.5,2.9-2.7,6.1c2.3,4.2,2.3,7.9-2.1,11.1c-1.1,0.8-1,3.2-1.7,4.7c-0.8,1.5-1.9,4-3.1,4.1c-4.2,0.4-8.5-0.2-12.7,0
		c-1.8,0.1-3.5,1.2-5.3,1.8c-1.1,0.4-2.7,1.5-3.3,1.1c-7.9-5-16-2.2-24.2-1.2c-0.7,0.1-1.5,0.6-1.9,0.4c-7.5-4.9-15.9-2.1-23.8-2.8
		c-1.3-0.1-2.5-0.7-3.8-0.9c-3.3-0.7-6.3-1.1-8.5,2.6c-0.7,1.1-3.3,1.1-5.1,1.6C0,222.7,0,111.3,0,0c500,0,1000,0,1500,0
		C1500,62.7,1500,125.3,1500,188z M794.4,313c0.3,0.1,0.6,0.3,0.9,0.4c0.5,7.6,0.9,15.2,1.5,22.8c0.2,3,0.6,6,1.2,8.9
		c0.2,0.9,2,2.3,2.5,2.1c1.1-0.4,2.4-1.6,2.6-2.7c0.4-1.7-0.1-3.6-0.1-5.5c0-6.8,0-13.7,0-20.5c0.5,0,1.1-0.1,1.6-0.1
		c0.7,3.2,1.4,6.3,2,9.5c1.1,6.2,1.9,12.5,3.1,18.7c0.2,1.1,1.4,1.9,2.1,2.9c0.8-1.1,2.1-2.1,2.2-3.2c0.3-2.5,0.2-5-0.1-7.5
		c-1.1-8.6-3.3-17.1,2.3-25.2c4.2-6.1,2.5-13.1,1.9-19.7c-0.4-4.2-2.3-8.5-4.4-12.2c-1.5-2.5-4.5-4.1-6.7-6.1c0.3-1,0.3-1.5,0.6-1.9
		c2-2.9,2-5.8-0.7-8c-0.9-0.7-3.1-0.4-4.4,0.1c-3.4,1.3-2.9,4.2-2.7,7.2c0.1,1.7-1.1,3.7-2.1,5.4c-2.1,3.6-5.3,6.8-6.5,10.7
		c-1.5,5-2.1,10.5-2.1,15.7c0,3.7,1.5,7.4,2.5,12.2C793.2,314.9,793.8,313.9,794.4,313z"/>
	</mask>
	</defs>
</g>
</svg>
