<?xml version="1.0" encoding="utf-8"?>
<!-- Generator: Adobe Illustrator 19.0.0, SVG Export Plug-In . SVG Version: 6.00 Build 0)  -->
<svg version="1.1" id="Layer_1" xmlns="http://www.w3.org/2000/svg" xmlns:xlink="http://www.w3.org/1999/xlink" x="0px" y="0px"
	 viewBox="0 0 467 700" style="enable-background:new 0 0 467 700;" xml:space="preserve">
<path id="XMLID_16_" d="M293.2,524.8c0,3.3,0,6.7,0,10c-1.8,0.6-3.5,1.8-5.3,1.8c-16.3,0.6-32.5,0.9-48.8,1.4
	c-2.3,0.1-4.6,0.5-6.9,0.8c-1.3,0-2.7,0-4,0c-1.1-0.2-2.3-0.6-3.4-0.6c-13.3-0.2-26.7-0.4-40-0.6c-13.9-0.2-11.8,0.5-11.9-11.9
	c-0.3-32.8-0.8-65.7-0.6-98.5c0-5.6,1.7-11.8,4.6-16.5c1.3-2.1,7.3-1.4,11.2-2c0.2,0,0.4-0.4,0.7-0.7c-6.7-13.5-18-25.5-15-44
	c3.5,2.8,6.1,4.9,7.8,6.2c0-5.7-0.4-12.1,0.1-18.4c0.3-3.4-0.6-5.5-3-7.8c-9.4-8.9-19-17.7-27.7-27.3c-5.7-6.3-10.1-13.9-14.9-21.1
	c-0.6-0.9,0-2.7,0.1-4.1c1.3,0.1,2.8-0.1,3.7,0.5c6.8,4.2,15.9,3.7,21.1,10.8c0.3,0.5,1.2,0.6,1.7,0.9c2,1.2,4.2,2.3,5.9,3.7
	c2.2,1.8,3.9,4.2,6,6c11.7,10.2,21.1,22.1,27.7,36.2c1.3,2.8,2.8,5.4,4.2,8.1c0.6-0.9,0.7-1.6,0.5-2.1
	c-8.6-20.9-12.3-42.8-13.6-65.2c-0.4-6.7-0.7-13.6,3.6-19.6c2.3-3.2,3.5-3.1,5.8-0.1c3.9,5.2,4.4,11.2,5.6,17.2c0.4,2.1,1.7,4,3,6.7
	c1.2-1.9,1.6-2.7,2.1-3.3c1.6-1.7,3.2-3.4,4.8-5c0.9,2,2.4,4,2.6,6.1c0.7,5.4,0.6,10.9,1.2,16.3c0.4,3.6,0.9,7.6,2.8,10.4
	c1.7,2.6,5.3,4,8.2,5.9c0.8-0.7,2-2,3.4-3.1c4.2-3.4,9.2-6,12.5-10.2c7.6-9.7,14.3-20.1,21.5-30.1c2-2.8,3.5-6.6,7.9-7.2
	c1.2,7.9-0.5,15.2-5.1,25.5c-1,2.2-0.9,4.9-1.3,7.4c-0.9,6.2-0.8,12.7-2.8,18.5c-3.6,10.3-8.2,20.3-13,30.1
	c-6.2,12.7-13,25.1-19.5,37.6c-0.5,1-1,2.1-1.6,3.1c0.7,0.6,1.4,1.2,2.1,1.8c2.3-3,4.5-6.2,6.9-9.1c4.5-5.6,9-11.1,13.6-16.5
	c4.5-5.2,9.1-10.1,13.8-15.1c3.1-3.3,6.2-6.5,9.6-9.5c1.6-1.4,3.9-2.1,5.8-3.1c0.5,0.3,0.9,0.7,1.4,1c-0.8,2.7-1,5.8-2.4,8.2
	c-2.7,4.8-6.4,9-8.9,13.8c-2.3,4.5-3.6,9.5-5.2,14.3c-1.5,4.7-2.3,9.6-4.1,14.1c-1.4,3.6-3.8,6.8-6.3,11c7.3,0,13.6-0.1,19.8,0
	c1.4,0,3.6,0.1,4.1,0.9c2.7,4.5,6.5,8.2,6.5,14.2c0,31.5,0.2,63,0.4,94.5C292.6,519.8,293,522.3,293.2,524.8z"/>
</svg>
