<?xml version="1.0" encoding="utf-8"?>
<!-- Generator: Adobe Illustrator 19.0.0, SVG Export Plug-In . SVG Version: 6.00 Build 0)  -->
<svg version="1.1" id="Layer_1" xmlns="http://www.w3.org/2000/svg" xmlns:xlink="http://www.w3.org/1999/xlink" x="0px" y="0px"
	 viewBox="0 0 507 575.7" style="enable-background:new 0 0 507 575.7;" xml:space="preserve">
<path id="XMLID_5_" d="M468.2,226.8c-1.8-0.1-3.6,0.9-4.7,1.2c-3.2-0.8-6.2-1.9-9.2-2c-3.9-0.2-7.9,0.4-11.8,0.4
	c-1.5,0-3.1-1.1-4.6-1.1c-4.7-0.1-9.4,0.3-14.1,0.2c-2.2,0-4.3-0.6-6.5-1c-0.5-0.1-1.1-0.6-1.4-0.4c-5.4,3.9-9.6-2.1-14.7-1.7
	c5.4-3.3,10.1-6.2,17.5-6c7.4,0.2,15.6-2.9,22.7-7.1c3.9-2.3,6.1-5.2,7.5-9.2c0.2-0.5,0.9-1.2,1.4-1.2c4.3-0.6,3.5-3,1.8-6
	c4.3-1.8,8.5-3.6,11.4-4.8c0.7-3.7,1.8-6.8,1.7-9.9c-0.1-3-1.4-6-2.2-9.3c0.2-0.1,1-0.3,2.8-0.8c-2.7-1.3-4.7-2.2-7.1-3.3
	c-0.1-2.4-3.2-5.7,0.8-8.5c-3.4-9.1,4.1-9.6,9.3-12.1c3.6-1.7,8.1-3.4,5.6-9.2c-0.3-0.6,1.2-2.5,2.3-3.2c4.7-2.9,5.1-5.9,1.2-9.7
	c-2.8-2.8-2.6-7.9,1.1-10.7c-1.6-0.5-2.9-0.9-2.8-0.9c-1.7-4.5-3.2-8.2-4.9-12.7c0.1-0.1,1.1-0.5,2.1-1c-5.7-1.8-10.5-3.3-16.3-5.2
	c1.8-3.9,3.9-7.4,5.1-11.2c1.9-6.1,1.4-11.9-3.2-17.1c-2.5-2.9-4.5-5.1-8.6-2.9c-0.7,0.4-2-0.3-1.9-0.3c0.6-3.2,1.1-5.9,1.6-8.9
	c-1.6,0-2.8,0.3-3.8-0.1c-5.6-2.1-11-4.7-16.7-6.4c-3.1-0.9-6.6-0.1-9.9-0.5c-4.4-0.4-8.9-1.2-13.3-1.9c-1.3-0.2-2.8-1.2-3.8-0.8
	c-4.2,1.6-8.3,0.9-13-0.4c1.9,8.6-7,4.1-9,8.1c-5.8-2.7-4.3-8.1-4.1-12.4c0.2-6.8,0.6-13.1-5.8-17.7c-1.4-1-4.6-1.8-3.1-5.7
	c0.7-1.7-2.7-4.6-5.7-4c-4.5,0.8-8.7-1.8-9.3-6.3c-2.8-1-7.4,4.4-8.2-3c-3.5,2.3-6.8,4.4-10.1,6.5c-0.3-0.3-0.6-0.6-0.9-0.9
	c0.4-1.6,0.8-3.2,1.5-5.9c-6.4,5.1-14.9-0.9-20.4,6.1c-3.2,0-6.7,0-10.5,0c2.9,5.1,2.4,6.9-2.9,10.6c-0.9-1-1.8-2.2-2.9-3
	c-1-0.7-2.3-1.1-4-1.7c-0.1,1.4-0.5,2.5-0.2,3.2c1.3,2.6,0.3,3.9-2.2,4.9c-5,2.1-9.8,4.5-15,6.9c0,0.1,0,1.2-0.6,2
	c-2.9,4.3-6.3,8.4-8.9,12.9c-0.7,1.2,0.4,3.7,1.1,5.4c1.5,3.6,0.6,5.4-3.3,5.6c-3.6,0.2-7.3,0-10.9,0c-0.1,0.4-0.2,0.9-0.3,1.3
	c1.3,0.7,2.6,1.4,3.8,2.1c-0.3,0.6-0.4,1.1-0.5,1.1c-0.9,0.1-9.3,4.1-10.4,4.6c-9,3.6-8.9,11.1-8.8,19c0,2.8-1.2,5.8-2.5,8.3
	c-1.9,3.6-0.7,6.3,1.3,9.3c2.2,3.2,3.5,6.9,5.5,10.3c0.7,1.2,2.1,2,3.1,3c1.3,1.3,3.5,2.6,3.6,3.9c0.3,5.5,4.9,7.9,7.7,11.5
	c1.2,1.6,3.6,2.2,6,3.6c0.6,4.4,1.5,9.3-0.9,14.6c-1.4,3.1,0,7.4,0.7,11.2c-1.3,3.3-8.6,4.6-3,10.3c-5.1,6.5-3.8,11.1,3.9,13.8
	c3.3,1.2,7,1.7,9.7,3.6c3.8,2.7,7,6.4,11.1,10.4c-2.6,0.7-3.9,1-5.6,1.5c0.5,0.6,0.8,1.1,1.3,1.5c3.2,2.8,2.5,5.3-0.3,7.8
	c-6.9,6.1-7.2,6.1-15.7,2.3c-2.2-1-4.7-1.7-7.1-2c-5-0.7-9.6,5.2-8.1,11.9c-6.3,0-12.3,0-18.3,0c-0.1,0.6-0.2,1.2-0.2,1.8
	c1.3,0.6,2.6,1.2,3.9,1.9c0,0.4-0.1,0.8-0.1,1.2c-12.8,0-25.6,0-38.5,0c3.4-3.9,4.6-8.4,2.8-13.9c-0.4-1.2,2-4,3.6-5.2
	c6.8-5,13.9-9.8,20.9-14.5c6.9-4.6,11.6-10.9,14.6-18.6c-0.8-0.4-1.7-0.9-2.3-1.2c1.3-1.4,2.3-2.5,3.3-3.6c-2.8-1.9,1-7.4-4.3-7.8
	c-1.8-0.2-3.8-0.5-5.4,0c-8.9,2.7-17.8,5.8-24.2,13.2C189.2,189,173.9,207,158.5,225c-0.5,0.6-1.1,1.2-1.6,1.8
	c-0.5-0.1-1.1-0.2-1.6-0.3c0.3-2.7,0.2-5.6,1-8.2c3.4-10.6,7.5-20.9,10.3-31.6c0.9-3.5-1-7.9-2-13.5c-2.7,2.9-4.8,4.4-5.9,6.4
	c-6.1,11.6-12.2,23.2-17.6,35.1c-2.3,4.9-2.7,10.7-4.5,15.8c-1.2,3.5-3.5,6.6-5.3,9.9c-0.7-0.2-1.4-0.4-2.1-0.7
	c-0.5-9.8-1-19.6-1.5-29.5c-0.4-6.3-1.3-12.5-1.2-18.7c0-3.7,0.8-7.8,2.5-11.1c4-7.8,8.9-15.2,13.3-22.8c3.1-5.3,7.8-8.3,13.5-10.4
	c7.6-2.8,8-4,6.3-12c-0.2-1-0.1-2.2,0-3.3c0.2-1.8,0.8-3.6,0.6-5.4c-0.5-3.5,0-8.6-4.3-9.1c-2.7-0.4-6.9,2.2-8.6,4.6
	c-7.7,11-14.8,22.4-22.1,33.7c-0.5,0.8-1,1.7-2.3,2.4c0-2.6-0.2-5.3,0.1-7.9c0.2-2.3,1.1-4.6,1.3-6.9c0.5-6.8-2.8-10.5-9.4-10.8
	c-6.2-0.3-9.1,2.6-9.4,9.5c-0.1,3,0,6,0,9c0,2.8,0,5.6,0,8.7c-9.3-1.2-6.4,7.6-9.6,11.4c-1.6-3.5,1.2-9-4.8-11.3
	c-0.9-0.3-0.1-4.7-0.3-7.1c-0.3-3.5-0.3-7.1-1.3-10.5c-0.4-1.3-2.7-2.5-4.3-2.9c-0.9-0.2-2.6,1.2-3.2,2.3c-1.8,3.5-3.2,7.3-4.8,11
	c-4-1.6-9.4-4.5-14-0.1c-4.9,4.7-4.7,11.2-3.1,17.4c1.2,4.5,3.3,8.7,5,13c0.7,1.7,1.4,3.3,2.7,5.9c-8.4-4.4-15.7-8.4-23.2-12.2
	c-10.1-5-20.2-10.2-30.6-14.6c-3.8-1.6-8.4-1.6-12.7-1.6c-3.2,0-4.5,2.2-3.4,5.6c1.3,4,2.2,8,3.2,12c1.5,6,3,7.4,9.6,6.6
	c9.8-1.2,18.8,1.1,25.5,4.1c2.6,5.3,4.4,8.8,6.1,12.3c2.1,4.2,4.3,8.2,6.2,12.5c3.2,7.1,6.1,14.4,9,21.3c-2.3,0.1-4.7,0.3-7.8,0.5
	c-1.1-2.1-2.4-4.9-4-7.6c-1-1.7-1.9-3.8-3.4-4.8c-2.4-1.7-5.3-2.8-8.1-4.1c-0.6,2.6-1.5,5.1-1.8,7.7c-0.7,5.6,1.2,10.3,5.1,14.5
	c2.8,3,4.7,6.8,7,10.3c0.8,1.2,1.3,3,2.4,3.7c6.3,4,8,10.6,10.4,17c4.7,12.8,14.8,19.5,26.9,24.2c1.6,0.6,3.2,2.3,4,3.9
	c3.1,6.2,5.9,12.6,9,19.5c-8.6,0.5-17.1,1.2-25.7,1.4c-15.1,0.4-30.1,0.5-45.2,0.9c-2.6,0.1-5.1,1.2-7.6,1.8c-1,0.2-2.1,1-2.8,0.7
	c-6.5-2.7-6.6,1.8-6.5,6c0.3,19.8,0.6,39.6,1.2,59.4c0.6,23.5,1.6,46.9,2.1,70.4c0.5,25.3,0.5,50.5,0.8,75.8
	c0.1,5.8,0.6,11.6,1.2,17.4c0.1,1.5,0.8,3.6,1.9,4.2c6.6,3.6,13.1,8.2,20.3,10c22,5.7,44.5,8.4,67.3,7.5c1.5-0.1,2.9,0.4,4.4,0.6
	c10.7,0,21.3,0,32,0c10.4-1.3,20.8-2.6,31.1-4c10.4-1.5,20.7-2.9,31-5c3.9-0.8,8.1-2.8,11.1-5.4c2.9-2.5,4.8-6.4,6.6-10
	c1-2.1,0.8-4.8,1-6.2c20,2.6,39.6,6.2,59.2,7.3c23.7,1.2,47.6,0.9,71.4,0c29.1-1.1,58.2-3.2,87.3-5.7c17.3-1.5,34.9-2.6,50.9-11
	c5.2-2.7,8.4-6.2,8.5-12.3c0.4-17.3,1-34.5,1.6-51.8c0.6-18.1,1.4-36.2,2-54.4c0.3-10.3,0.3-20.5,0.7-30.8
	c0.3-7.2,1.1-14.4,1.7-21.6c0-0.7,0-1.3,0-2c-0.3-9-0.8-18-0.9-26.9c-0.1-4.4,0.6-8.7,0.9-13.1c0-31,0-62,0-93
	c-2.8-0.4-5.6-0.8-8.3-1C488.5,227.9,478.4,227.3,468.2,226.8z M58.8,197.4c5.4,2.3,10.7,3.4,14,6.5c2.5,2.5,4.5,9,3,11.3
	c-2.7,4.2-0.9,6.2,0.8,9.2c0.6,1.1,1,2.8,0.5,3.8c-1.7,3.6-1.1,6.7,0.9,9.9c2.1,3.4,4.1,6.9,6,10.3c0.1,0.2-0.1,0.6-0.4,2
	C70,235.2,65.2,216.6,58.8,197.4z M90.1,276c-9.9-9-20.5-17.5-23.6-31.8c8.5,10.1,17.1,20.2,25.6,30.4C91.4,275,90.7,275.5,90.1,276
	z M109.8,296.1c-0.5-10-1.7-19.8-1.3-29.5c0.2-4.6,3.6-9.1,5.6-14C118.2,260.9,115.5,286.2,109.8,296.1z M191.9,227.2
	c0,13.7,0,28.2,0,42.4c-6.2-0.5-12.3-0.9-19-1.4c0.7-1.1,1.2-2.2,1.9-3.1c3-4.2,6.3-8.2,8.9-12.6c1-1.6,1.2-5.2,0.2-6
	c-1.5-1.2-5-1.7-6.4-0.7c-5.4,3.9-10.4,8.2-15.2,12.8c-4.6,4.4-6,4.6-10.4-0.5C163.1,245.2,174.3,232.3,191.9,227.2z M124.1,312.4
	c-0.1-0.9-0.3-1.7-0.1-2.6c2.6-12.4,5.1-24.9,8.1-37.3c1.5-6,4.9-6.7,9.3-2.6c2.5,2.4,5.3,4.5,8.6,7.2c-8.2,12.2-16.2,24.1-24.2,36
	C125.2,312.9,124.6,312.6,124.1,312.4z M193.8,317.9c-20.1,0-40.1,0-60.4,0c9.6-11.2,19.3-22.6,29.3-34.2
	c9.2,5.8,18.2,13.1,31.1,12.2C193.8,303.4,193.8,310.3,193.8,317.9z"/>
</svg>
