<?xml version="1.0" encoding="utf-8"?>
<!-- Generator: Adobe Illustrator 19.0.0, SVG Export Plug-In . SVG Version: 6.00 Build 0)  -->
<svg version="1.1" id="Layer_1" xmlns="http://www.w3.org/2000/svg" xmlns:xlink="http://www.w3.org/1999/xlink" x="0px" y="0px"
	 viewBox="0 0 678 768.2" style="enable-background:new 0 0 678 768.2;" xml:space="preserve">
<style type="text/css">
	.st0{fill:#231F20;}
</style>
<g id="XMLID_1_">
	<path id="XMLID_10_" class="st0" d="M640.5,239.1c-40.2-33.5-79.5-3-117.7,29.2c-25.5,21.5-106.5,89.2-120.3,21.4c0,0,0-0.1,0-0.1
		l-0.5-7c-3.3-80,21.5-183.5-44.1-246.3c-57-54.6-111.8-42-175.4-0.3c-0.2,0.1-23,13.6-27.5,17.3l-7.6,5.7l-10,6.6l-6.8,5.1
		c-0.2,0.4-6.8,4.8-7,4.9C76,107.9,20.8,157.1,3.4,213.4c-23.1,74.9,77.7,52.5,124.3,70.2c64.3,24.5-49.5,91.8-65,155.5
		c-17.4,71.8,39.8,110.1,105.3,95.5c57.1-12.7,144.1-84,203.2-70.1c48.8,11.4-61.1,147.2-72.8,180.9c-10.6,30.5-17.3,56.3,3.7,80.5
		c17.5,20.2,69.4,34.7,94.6,39.6c68.8,13.5,117.5-23.5,158.2-74.8c59.1-74.4,130.9-221.6,122.5-366.9
		C675.7,296.1,673,266.2,640.5,239.1z"/>
</g>
</svg>
